<?xml version="1.0" encoding="UTF-8"?>
<svg width="100px" height="24px" viewBox="0 0 100 24" version="1.1" xmlns="http://www.w3.org/2000/svg" xmlns:xlink="http://www.w3.org/1999/xlink">
    <!-- Generator: Sketch 52.6 (67491) - http://www.bohemiancoding.com/sketch -->
    <title>logo_landing</title>
    <desc>Created with Sketch.</desc>
    <defs>
        <linearGradient x1="50%" y1="0%" x2="50%" y2="100%" id="linearGradient-1">
            <stop stop-color="#15F3F5" offset="0%"></stop>
            <stop stop-color="#08B3C4" offset="100%"></stop>
        </linearGradient>
    </defs>
    <g id="logo_landing" stroke="none" stroke-width="1" fill="none" fill-rule="evenodd">
        <g id="logo-sirena" transform="translate(0.000000, 1.000000)">
            <path d="M88.9635484,18.4032394 C87.8048387,17.2198732 87.2245161,15.6591127 87.2245161,13.7248451 C87.2245161,11.7925211 87.8196774,10.2482817 89.01,9.09504225 C90.2,7.94115493 91.6074194,7.36388732 93.2296774,7.36388732 C94.8532258,7.36388732 96.19,8.14426761 97.2416129,9.70276056 L97.2416129,7.55047887 L99.8387097,7.55047887 L99.8387097,19.992831 L97.2416129,19.992831 L97.2416129,17.9591127 C96.7464516,18.6763239 96.1170968,19.2263803 95.3516129,19.607662 C94.5864516,19.9905634 93.8174194,20.1810423 93.0445161,20.1810423 C91.4832258,20.1807183 90.1235484,19.5885493 88.9635484,18.4032394 M89.8674194,13.8450282 C89.8674194,15.0377887 90.246129,16.0073521 91.0041935,16.7559859 C91.7609677,17.5046197 92.6506452,17.8790986 93.6703226,17.8790986 C94.6906452,17.8790986 95.5564516,17.5020282 96.2674194,16.7443239 C96.9780645,15.9895352 97.3341935,15.0173803 97.3341935,13.8323944 C97.3341935,12.6487042 96.9780645,11.6571127 96.2674194,10.8631268 C95.5564516,10.0678451 94.6819355,9.67069014 93.6470968,9.67069014 C92.6116129,9.67069014 91.7219355,10.0678451 90.9806452,10.8631268 C90.2387097,11.6571127 89.8674194,12.6525915 89.8674194,13.8450282" id="SVGID_33_" fill="#37474F"></path>
            <path d="M76.1106452,13.2719718 L76.1106452,20.0067606 L73.5132258,20.0067606 L73.5132258,7.56440845 L76.1106452,7.56440845 L76.1106452,9.83298592 C76.5277419,9.06912676 77.1041935,8.47047887 77.8377419,8.03380282 C78.5719355,7.59680282 79.3641935,7.3778169 80.2148387,7.3778169 C81.6058065,7.3778169 82.7296774,7.80769014 83.5880645,8.66452113 C84.446129,9.52232394 84.8748387,10.7620563 84.8748387,12.3833944 L84.8748387,20.0067606 L82.2780645,20.0067606 L82.2780645,13.1780282 C82.2780645,10.8864507 81.3341935,9.74066197 79.4487097,9.74066197 C78.5525806,9.74066197 77.7716129,10.0416056 77.1070968,10.6402535 C76.4429032,11.241169 76.1106452,12.1177606 76.1106452,13.2719718" id="SVGID_29_" fill="#37474F"></path>
            <path d="M65.5212903,7.37749296 C67.2064516,7.37749296 68.6051613,7.84947887 69.7180645,8.79215493 C70.8312903,9.73612676 71.3954839,10.9645211 71.4112903,12.477338 L71.3912903,12.5230141 L62.4377419,16.3348592 C63.2412903,17.3332535 64.3354839,17.8324507 65.7183871,17.8324507 C67.1019355,17.8324507 68.2422581,17.2862817 69.1390323,16.1955634 L70.6693548,17.9030704 C69.2009677,19.4311127 67.47,20.1946479 65.4751613,20.1946479 C63.7280645,20.1946479 62.2290323,19.6096056 60.9774194,18.4414648 C59.7248387,17.2713803 59.0993548,15.7281127 59.0993548,13.8093944 C59.0993548,12.4847887 59.4241935,11.3189155 60.0729032,10.3127465 C60.7225806,9.3075493 61.5264516,8.56701408 62.4848387,8.09243662 C63.4422581,7.61494366 64.4548387,7.37749296 65.5212903,7.37749296 M61.6032258,13.8570141 C61.6032258,14.058507 61.6106452,14.2078451 61.626129,14.300169 L68.4664516,11.3299296 C67.9409677,10.3014085 67.0051613,9.78698592 65.6609677,9.78698592 C64.6403226,9.78698592 63.7083871,10.1449437 62.8667742,10.8628028 C62.0235484,11.580338 61.6032258,12.5787324 61.6032258,13.8570141" id="SVGID_25_" fill="#37474F"></path>
            <path d="M57.9345161,10.0211972 C56.6512903,10.0211972 55.6854839,10.4423239 55.0364516,11.2845775 C54.3870968,12.1261831 54.0625806,13.2564225 54.0625806,14.6749718 L54.0625806,20.0067606 L51.4651613,20.0067606 L51.4651613,7.56440845 L54.0625806,7.56440845 L54.0625806,10.0678451 C54.4796774,9.28778873 55.0474194,8.64961972 55.7667742,8.15074648 C56.4851613,7.65057746 57.2464516,7.39401408 58.05,7.37814085 L58.0735484,10.0211972 L57.9345161,10.0211972 L57.9345161,10.0211972 Z" id="SVGID_21_" fill="#37474F"></path>
            <rect id="SVGID_17_" fill="#37474F" x="45.22" y="7.56408451" width="2.59709677" height="12.4426761"></rect>
            <path d="M35.8758065,5.19540845 C35.0387097,5.19540845 34.3545161,5.36807042 33.8190323,5.71209859 C33.283871,6.05612676 33.0151613,6.57573239 33.0151613,7.27059155 C33.0151613,7.96609859 33.283871,8.49930986 33.8190323,8.86698592 C34.3545161,9.23498592 35.4941935,9.63149296 37.2390323,10.0581268 C38.9832258,10.4844366 40.2974194,11.0811408 41.1829032,11.850831 C42.0670968,12.6195493 42.5090323,13.7530282 42.5090323,15.2506197 C42.5090323,16.7482113 41.9496774,17.9639718 40.8293548,18.8982254 C39.71,19.8308592 38.2412903,20.2970141 36.4241935,20.2970141 C33.7622581,20.2970141 31.4003226,19.3724789 29.34,17.5227606 L31.1409677,15.3361408 C32.8612903,16.8444225 34.6470968,17.5956479 36.4967742,17.5956479 C37.4216129,17.5956479 38.1558065,17.3954507 38.7,16.9947324 C39.2432258,16.594338 39.5151613,16.0614507 39.5151613,15.3989859 C39.5151613,14.7355493 39.26,14.2201549 38.7483871,13.8524789 C38.2367742,13.483507 37.3567742,13.1488732 36.1074194,12.8459859 C34.8564516,12.5421268 33.9077419,12.264831 33.2587097,12.0102113 C32.6090323,11.7568873 32.0335484,11.425169 31.5306452,11.0150563 C30.5241935,10.246662 30.0216129,9.06750704 30.0216129,7.47953521 C30.0216129,5.89188732 30.5932258,4.669 31.7374194,3.80957746 C32.8816129,2.95015493 34.2970968,2.5196338 35.9854839,2.5196338 C37.0729032,2.5196338 38.1516129,2.70007042 39.2229032,3.05964789 C40.293871,3.42084507 41.2190323,3.9278169 41.9980645,4.58380282 L40.4645161,6.76847887 C39.9609677,6.31009859 39.2796774,5.93270423 38.42,5.63856338 C37.5593548,5.34312676 36.7112903,5.19540845 35.8758065,5.19540845" id="SVGID_7_" fill="#37474F"></path>
            <path d="M46.5825806,6.01207042 C46.5290323,6.06616901 46.4416129,6.06616901 46.3883871,6.01207042 L44.8348387,4.44450704 C44.7812903,4.39073239 44.7812903,4.30326761 44.8348387,4.24884507 L46.3883871,2.68192958 C46.4416129,2.62783099 46.5290323,2.62783099 46.5825806,2.68192958 L48.136129,4.24884507 C48.1893548,4.30326761 48.1893548,4.39073239 48.136129,4.44450704 L46.5825806,6.01207042 L46.5825806,6.01207042 Z" id="SVGID_37_" fill="#07C6D9"></path>
            <path d="M22.486129,10.7034225 C22.9248387,11.1423662 22.9248387,11.8543944 22.486129,12.2930141 L12.2825806,22.5069577 C11.843871,22.9459014 11.1329032,22.9459014 10.6941935,22.5069577 L0.49,12.2930141 C0.0516129032,11.8543944 0.0516129032,11.1423662 0.49,10.7034225 L10.6941935,0.489802817 C11.1325806,0.0508591549 11.8435484,0.0508591549 12.2825806,0.489802817 L22.486129,10.7034225 L22.486129,10.7034225 Z" id="SVGID_47_" fill="#1A4241"></path>
            <path d="M11.7767742,11.5993427 C11.6796774,11.9145399 11.6277419,12.2491737 11.6277419,12.5957934 C11.6277419,14.4662441 13.1425806,15.9826244 15.0112903,15.9826244 C15.4493548,15.9826244 15.8680645,15.8990469 16.2525806,15.7471174 L12.2209677,19.7821596 C11.856129,20.1475681 11.2925806,20.1925962 10.8787097,19.9175681 C9.36258065,17.4381033 8.73935484,14.8540047 8.96258065,12.6006526 L6.57225806,12.5990329 C6.35741935,12.6100469 6.17580645,12.5277653 6.04548387,12.3175258 C6.04548387,12.3175258 4.11225806,9.0602723 3.97258065,8.79593427 C3.83322581,8.53159624 3.92548387,8.19534272 4.17580645,8.23421596 L8.0283871,9.10141315 C8.3816129,9.20799061 8.51419355,9.27634272 8.60354839,9.50958216 L9.14903226,10.9316948 L9.87225806,7.99870892 C9.93516129,7.67703286 10.0177419,7.44994836 10.2948387,7.30384977 L14.3616129,5.42983568 C14.7370968,5.23870892 15.1296774,5.47875117 15.0609677,5.82958216 L14.0529032,10.0917089 C13.8903226,10.5766526 13.8274194,10.7133568 13.5141935,10.8406667 L11.7767742,11.5993427 L11.7767742,11.5993427 Z" id="SVGID_59_" fill="url(#linearGradient-1)"></path>
        </g>
    </g>
</svg>